<svg xmlns="http://www.w3.org/2000/svg" version="1.1" viewBox="-5.0 -10.0 110.0 135.0">
 <path d="m92.715 30.422c0-0.35938-0.14844-0.68359-0.37891-0.91406-0.23047-0.23047-0.55859-0.37891-0.91406-0.37891-0.35938 0-0.68359 0.14844-0.91406 0.37891-0.23047 0.23047-0.37891 0.55859-0.37891 0.91406 0 0.35938 0.14844 0.68359 0.37891 0.91406 0.23047 0.23047 0.55859 0.37891 0.91406 0.37891 0.35938 0 0.68359-0.14844 0.91406-0.37891 0.23047-0.23047 0.37891-0.55859 0.37891-0.91406zm-52.199 39.156c0 0.35938 0.14844 0.68359 0.37891 0.91406 0.23047 0.23047 0.55859 0.37891 0.91406 0.37891 0.35938 0 0.68359-0.14844 0.91406-0.37891 0.23047-0.23047 0.37891-0.55859 0.37891-0.91406 0-0.35938-0.14844-0.68359-0.37891-0.91406-0.23047-0.23047-0.55859-0.37891-0.91406-0.37891-0.35938 0-0.68359 0.14844-0.91406 0.37891-0.23047 0.23047-0.37891 0.55859-0.37891 0.91406zm-1.1914 2.4844c-0.63281-0.64062-1.0312-1.5156-1.0312-2.4844s0.39062-1.8516 1.0312-2.4844c0.64062-0.64062 1.5156-1.0312 2.4844-1.0312 0.23047 0 0.46484 0.019531 0.68359 0.0625l1.7383-3.0859c0.19922-0.35937 0.57812-0.55859 0.95703-0.55859h6.9062c0.60938 0 1.1055 0.49609 1.1055 1.1055 0 0.60937-0.49609 1.1055-1.1055 1.1055h-6.2617l-1.4219 2.5156c0.57031 0.62109 0.91406 1.4531 0.91406 2.3672 0 0.96875-0.39062 1.8516-1.0312 2.4844-0.64062 0.63281-1.5156 1.0312-2.4844 1.0312s-1.8516-0.39062-2.4844-1.0312zm-1.0312-41.641c0-0.96875 0.39062-1.8516 1.0312-2.4844 0.63281-0.64062 1.5156-1.0312 2.4844-1.0312s1.8516 0.39062 2.4844 1.0312c0.63281 0.64062 1.0312 1.5156 1.0312 2.4844 0 0.91406-0.34766 1.7461-0.91406 2.3672l1.4219 2.5156h6.2617c0.60938 0 1.1055 0.49609 1.1055 1.1055s-0.49609 1.1055-1.1055 1.1055h-6.9062c-0.39062 0-0.75781-0.21094-0.95703-0.57031l-1.7383-3.0859c-0.22266 0.042969-0.45313 0.0625-0.68359 0.0625-0.96875 0-1.8516-0.39062-2.4844-1.0312-0.64062-0.64062-1.0312-1.5156-1.0312-2.4844zm2.6016-0.91406c-0.23047 0.23047-0.37891 0.55859-0.37891 0.91406 0 0.35938 0.14844 0.68359 0.37891 0.91406 0.23047 0.23047 0.55859 0.37891 0.91406 0.37891 0.35938 0 0.68359-0.14844 0.91406-0.37891 0.23047-0.23047 0.37891-0.55859 0.37891-0.91406 0-0.35938-0.14844-0.68359-0.37891-0.91406-0.23047-0.23047-0.55859-0.37891-0.91406-0.37891-0.35938 0-0.68359 0.14844-0.91406 0.37891zm-5.0312 20.496c0-1.1172 0.45312-2.1367 1.1914-2.875 0.73828-0.73828 1.7461-1.1914 2.875-1.1914 1.125 0 2.1367 0.45312 2.875 1.1914 0.48437 0.48438 0.84375 1.0859 1.0312 1.7578h8.2734c0.60938 0 1.1055 0.49609 1.1055 1.1055 0 0.60937-0.49609 1.1055-1.1055 1.1055h-8.2734c-0.19141 0.67188-0.55859 1.2734-1.0312 1.7578-0.73828 0.73828-1.7461 1.1914-2.875 1.1914-1.125 0-2.1367-0.45312-2.875-1.1914-0.73828-0.73828-1.1914-1.7461-1.1914-2.875zm2.7578-1.3047c-0.33594 0.33594-0.53516 0.78906-0.53516 1.3047s0.21094 0.96875 0.53516 1.3047c0.32812 0.33594 0.78906 0.53516 1.3047 0.53516s0.96875-0.21094 1.3047-0.53516c0.33594-0.33594 0.53516-0.78906 0.53516-1.3047s-0.21094-0.96875-0.53516-1.3047c-0.33594-0.33594-0.78906-0.53516-1.3047-0.53516s-0.96875 0.21094-1.3047 0.53516zm6.832-4.3789c-0.60938 0-1.1055-0.49609-1.1055-1.1055s0.49609-1.1055 1.1055-1.1055h6.6406c0.60938 0 1.1055 0.49609 1.1055 1.1055s-0.49609 1.1055-1.1055 1.1055zm-0.03125 13.809c-0.60938 0-1.1055-0.49609-1.1055-1.1055 0-0.60938 0.49609-1.1055 1.1055-1.1055h6.6719c0.60938 0 1.1055 0.49609 1.1055 1.1055 0 0.60937-0.49609 1.1055-1.1055 1.1055zm35.98 22.746c0.35938 0 0.68359-0.14844 0.91406-0.37891 0.23047-0.23047 0.37891-0.55859 0.37891-0.91406 0-0.35938-0.14844-0.68359-0.37891-0.91406-0.23047-0.23047-0.55859-0.37891-0.91406-0.37891-0.35938 0-0.68359 0.14844-0.91406 0.37891s-0.37891 0.55859-0.37891 0.91406c0 0.35938 0.14844 0.68359 0.37891 0.91406 0.23047 0.23047 0.55859 0.37891 0.91406 0.37891zm2.4844 1.1914c-0.64062 0.64062-1.5156 1.0312-2.4844 1.0312s-1.8516-0.39062-2.4844-1.0312c-0.63281-0.64062-1.0312-1.5156-1.0312-2.4844 0-0.23047 0.019531-0.46484 0.0625-0.68359l-3.0859-1.7383c-0.35938-0.19922-0.55859-0.57812-0.55859-0.95703v-5.7891h-4.3359v5.5703c0 0.60938-0.49609 1.1055-1.1055 1.1055s-1.1055-0.49609-1.1055-1.1055v-5.5703h-4.8008v7.1562c0.67188 0.19141 1.2734 0.55859 1.7578 1.0312 0.73828 0.73828 1.1914 1.7461 1.1914 2.875 0 1.125-0.45312 2.1367-1.1914 2.875-0.73828 0.73828-1.7461 1.1914-2.875 1.1914-1.125 0-2.1367-0.45312-2.875-1.1914-0.73828-0.73828-1.1914-1.7461-1.1914-2.875 0-1.125 0.45312-2.1367 1.1914-2.875 0.48438-0.48437 1.0859-0.84375 1.7578-1.0312v-7.168h-3.1914v12.18c0 3.4727-1.4219 6.6406-3.7148 8.9258-2.293 2.293-5.4531 3.7148-8.9258 3.7148-3.168 0-6.0742-1.1914-8.3047-3.1367-1.9883-1.7461-3.4414-4.1055-4.0312-6.7773-0.32813 0.019531-0.64063 0.03125-0.94922 0.03125-4.125 0-7.8633-1.6719-10.559-4.3789-2.6953-2.707-4.3789-6.4414-4.3789-10.559 0-0.36719 0.011719-0.73828 0.042969-1.0938-3.957-1.1797-7.3984-3.5703-9.8828-6.7461-2.6211-3.3477-4.1914-7.5586-4.1914-12.137 0-5.4414 2.2109-10.367 5.7695-13.938 2.4531-2.4531 5.5469-4.2617 9.0117-5.1484-0.125-0.39062-0.23047-0.78906-0.31641-1.1992-0.17969-0.83203-0.27344-1.6953-0.27344-2.5703 0-3.4102 1.3789-6.4961 3.6211-8.7383 2.2305-2.2305 5.3281-3.6211 8.7383-3.6211 0.78906 0 1.5781 0.074218 2.3477 0.22266 0.28516 0.050781 0.57031 0.11719 0.85156 0.19922 0.39844-2.832 1.7383-5.3672 3.6953-7.2734 2.2852-2.2305 5.3984-3.6094 8.8203-3.6094s6.6406 1.4219 8.9258 3.7148c2.2852 2.293 3.7148 5.4531 3.7148 8.9258v12.18h3.1914v-7.168c-0.67188-0.19141-1.2734-0.55859-1.7578-1.0312-0.73828-0.73828-1.1914-1.7461-1.1914-2.875 0-1.125 0.45312-2.1367 1.1914-2.875 0.73828-0.73828 1.7461-1.1914 2.875-1.1914 1.125 0 2.1367 0.45312 2.875 1.1914 0.73828 0.73828 1.1914 1.7461 1.1914 2.875 0 1.125-0.45312 2.1367-1.1914 2.875-0.48437 0.48438-1.0859 0.84375-1.7578 1.0312v7.168h4.5703v-5.5352c0-0.60938 0.49609-1.1055 1.1055-1.1055s1.1055 0.49609 1.1055 1.1055v5.5352h4.5703v-5.7891c0-0.39062 0.19922-0.75781 0.55859-0.95703l3.0859-1.7383c-0.042969-0.22266-0.0625-0.45313-0.0625-0.68359 0-0.96875 0.39062-1.8516 1.0312-2.4844 0.64062-0.63281 1.5156-1.0312 2.4844-1.0312s1.8516 0.39062 2.4844 1.0312c0.63281 0.64062 1.0312 1.5156 1.0312 2.4844s-0.39062 1.8516-1.0312 2.4844c-0.64062 0.63281-1.5156 1.0312-2.4844 1.0312-0.91406 0-1.7383-0.34766-2.3672-0.91406l-2.5156 1.4219v5.1484h0.90625c1.3281 0 2.5273 0.53516 3.3984 1.4102 0.875 0.875 1.4102 2.0742 1.4102 3.3984v0.90625h5.1484l1.4219-2.5156c-0.57031-0.62109-0.91406-1.4531-0.91406-2.3672 0-0.96875 0.39062-1.8516 1.0312-2.4844s1.5156-1.0312 2.4844-1.0312 1.8516 0.39062 2.4844 1.0312c0.64062 0.64062 1.0312 1.5156 1.0312 2.4844s-0.39062 1.8516-1.0312 2.4844-1.5156 1.0312-2.4844 1.0312c-0.23047 0-0.46484-0.019531-0.68359-0.0625l-1.7383 3.0859c-0.19922 0.35938-0.57812 0.55859-0.95703 0.55859h-5.7891v4.3359h5.5703c0.60938 0 1.1055 0.49609 1.1055 1.1055 0 0.60938-0.49609 1.1055-1.1055 1.1055h-5.5703v4.8008h7.168c0.19141-0.67187 0.55859-1.2734 1.0312-1.7578 0.73828-0.73828 1.7461-1.1914 2.875-1.1914 1.125 0 2.1367 0.45312 2.875 1.1914s1.1914 1.7461 1.1914 2.875c0 1.125-0.45312 2.1367-1.1914 2.875s-1.7461 1.1914-2.875 1.1914c-1.125 0-2.1367-0.45312-2.875-1.1914-0.48438-0.48438-0.84375-1.0859-1.0312-1.7578h-7.1562v4.5703h5.5352c0.60938 0 1.1055 0.49609 1.1055 1.1055s-0.49609 1.1055-1.1055 1.1055h-5.5352v4.5703h5.7891c0.39062 0 0.75781 0.21094 0.95703 0.57031l1.7383 3.0859c0.22266-0.042969 0.45312-0.0625 0.68359-0.0625 0.96875 0 1.8516 0.39062 2.4844 1.0312 0.63281 0.64062 1.0312 1.5156 1.0312 2.4844s-0.39062 1.8516-1.0312 2.4844-1.5156 1.0312-2.4844 1.0312-1.8516-0.39062-2.4844-1.0312c-0.64062-0.64062-1.0312-1.5156-1.0312-2.4844 0-0.91406 0.34766-1.7461 0.91406-2.3672l-1.4219-2.5156h-5.1484v0.90625c0 1.3281-0.53516 2.5273-1.4102 3.3984-0.875 0.875-2.0742 1.4102-3.3984 1.4102h-0.90625v5.1484l2.5156 1.4219c0.62109-0.57031 1.4531-0.91406 2.3672-0.91406 0.96875 0 1.8516 0.39062 2.4844 1.0312 0.63281 0.64062 1.0312 1.5156 1.0312 2.4844s-0.39062 1.8516-1.0312 2.4844zm-23.367 0.70703c0.33594 0.33594 0.78906 0.53516 1.3047 0.53516s0.96875-0.21094 1.3047-0.53516c0.33594-0.33594 0.53516-0.78906 0.53516-1.3047s-0.21094-0.96875-0.53516-1.3047c-0.33594-0.33594-0.78906-0.53516-1.3047-0.53516s-0.96875 0.21094-1.3047 0.53516c-0.33594 0.33594-0.53516 0.78906-0.53516 1.3047s0.21094 0.96875 0.53516 1.3047zm31.801-12.285c0.23047-0.23047 0.37891-0.55859 0.37891-0.91406 0-0.35938-0.14844-0.68359-0.37891-0.91406-0.23047-0.23047-0.55859-0.37891-0.91406-0.37891-0.35938 0-0.68359 0.14844-0.91406 0.37891-0.23047 0.23047-0.37891 0.55859-0.37891 0.91406 0 0.35938 0.14844 0.68359 0.37891 0.91406 0.23047 0.23047 0.55859 0.37891 0.91406 0.37891 0.35938 0 0.68359-0.14844 0.91406-0.37891zm2.2734-19.199c0.33594-0.33594 0.53516-0.78906 0.53516-1.3047s-0.21094-0.96875-0.53516-1.3047c-0.33594-0.33594-0.78906-0.53516-1.3047-0.53516-0.51562 0-0.96875 0.21094-1.3047 0.53516-0.33594 0.33594-0.53516 0.78906-0.53516 1.3047s0.21094 0.96875 0.53516 1.3047c0.33594 0.33594 0.78906 0.53516 1.3047 0.53516 0.51563 0 0.96875-0.21094 1.3047-0.53516zm-12.285-31.801c-0.23047-0.23047-0.55859-0.37891-0.91406-0.37891-0.35938 0-0.68359 0.14844-0.91406 0.37891s-0.37891 0.55859-0.37891 0.91406c0 0.35938 0.14844 0.68359 0.37891 0.91406 0.23047 0.23047 0.55859 0.37891 0.91406 0.37891 0.35938 0 0.68359-0.14844 0.91406-0.37891 0.23047-0.23047 0.37891-0.55859 0.37891-0.91406 0-0.35938-0.14844-0.68359-0.37891-0.91406zm-19.199-2.2734c-0.33594-0.33594-0.78906-0.53516-1.3047-0.53516-0.51563 0-0.96875 0.21094-1.3047 0.53516-0.33594 0.32812-0.53516 0.78906-0.53516 1.3047s0.21094 0.96875 0.53516 1.3047c0.33594 0.33594 0.78906 0.53516 1.3047 0.53516 0.51562 0 0.96875-0.21094 1.3047-0.53516 0.33594-0.33594 0.53516-0.78906 0.53516-1.3047s-0.21094-0.96875-0.53516-1.3047zm-5.6016 14.59v1.8516h17.672c0.80859 0 1.5586 0.33594 2.0938 0.86328 0.53516 0.53516 0.86328 1.2734 0.86328 2.0938v26.746c0 0.80859-0.33594 1.5586-0.86328 2.0938-0.52734 0.53516-1.2734 0.86328-2.0938 0.86328h-17.672v1.8516h19.895c0.71484 0 1.3594-0.29297 1.832-0.75781 0.47266-0.47266 0.75781-1.1172 0.75781-1.832v-31.191c0-0.71484-0.29297-1.3594-0.75781-1.832-0.47266-0.47266-1.1172-0.75781-1.832-0.75781h-19.895zm0 4.0742v28.23h17.672c0.19922 0 0.39062-0.085937 0.52734-0.22266s0.22266-0.31641 0.22266-0.52734v-26.746c0-0.19922-0.085938-0.39062-0.22266-0.52734-0.13672-0.13672-0.31641-0.22266-0.52734-0.22266h-17.672zm-40.496 31.223c-3.3906-1.0742-6.3281-3.1562-8.4727-5.8945-2.3281-2.9688-3.707-6.707-3.707-10.777 0-4.832 1.957-9.1992 5.1172-12.359 3.168-3.168 7.5352-5.1172 12.359-5.1172 0.80078 0 1.5703 0.050781 2.3047 0.14844 0.75781 0.09375 1.5039 0.25391 2.2539 0.45313 0.58984 0.15625 1.1992-0.19141 1.3594-0.78906 0.15625-0.58984-0.19141-1.1992-0.78906-1.3594-0.80859-0.22266-1.6641-0.39062-2.5352-0.50391-0.86328-0.11719-1.7383-0.16797-2.6016-0.16797-0.92578 0-1.8438 0.0625-2.7383 0.19141-0.13672-0.39844-0.25391-0.80078-0.33594-1.2227-0.14844-0.67188-0.22266-1.3789-0.22266-2.1172 0-2.8008 1.1367-5.3281 2.9688-7.168 1.832-1.8438 4.3672-2.9688 7.168-2.9688 0.66406 0 1.3047 0.0625 1.9258 0.17969 0.64062 0.125 1.2617 0.30469 1.8438 0.53516 0.57031 0.23047 1.2109-0.050781 1.4414-0.60937 0.050782-0.14844 0.085938-0.29297 0.085938-0.44141 0.074219-2.7891 1.2617-5.3281 3.1484-7.1562 1.8828-1.8438 4.4531-2.9805 7.2734-2.9805s5.4727 1.168 7.3594 3.0625c1.8828 1.8945 3.0625 4.4961 3.0625 7.3594v65.18c0 2.8633-1.168 5.4727-3.0625 7.3594-1.8828 1.8945-4.4961 3.0625-7.3594 3.0625-2.6211 0-5.0195-0.98047-6.8516-2.5781-1.8633-1.6328-3.1484-3.9062-3.4844-6.4531-0.074219-0.60938-0.63281-1.0312-1.2422-0.95703-0.26172 0.03125-0.54688 0.0625-0.85156 0.085937h-0.019532c-0.25391 0.019532-0.53516 0.03125-0.83203 0.03125-3.5156 0-6.6953-1.4219-8.9883-3.7266-2.3047-2.3047-3.7266-5.4844-3.7266-8.9883 0-3.5039 1.4219-6.6953 3.7266-8.9883 2.3047-2.3047 5.4844-3.7266 8.9883-3.7266 0.60938 0 1.1055-0.49609 1.1055-1.1055s-0.49609-1.1055-1.1055-1.1055c-4.125 0-7.8633 1.6719-10.559 4.3789-1.957 1.957-3.3789 4.4531-4.0117 7.2539z" fill-rule="evenodd"/>
<text x="0.0" y="117.5" font-size="5.0" font-weight="bold" font-family="Arbeit Regular, Helvetica, Arial-Unicode, Arial, Sans-serif" fill="#000000">Created by dewi persik</text><text x="0.0" y="122.5" font-size="5.0" font-weight="bold" font-family="Arbeit Regular, Helvetica, Arial-Unicode, Arial, Sans-serif" fill="#000000">from Noun Project</text></svg>